<mxfile host="65bd71144e">
    <diagram id="YKLvdN9VXybtBLxPUV1g" name="General System">
        <mxGraphModel dx="721" dy="571" grid="1" gridSize="10" guides="1" tooltips="1" connect="1" arrows="1" fold="1" page="1" pageScale="1" pageWidth="850" pageHeight="1100" background="none" math="0" shadow="0">
            <root>
                <mxCell id="0"/>
                <mxCell id="1" parent="0"/>
                <mxCell id="3" value="Cánh tay Robot 5 bậc tự do và tay gắp" style="rounded=1;whiteSpace=wrap;html=1;fillColor=#a20025;fontColor=#ffffff;strokeColor=#6F0000;" parent="1" vertex="1">
                    <mxGeometry x="330" y="230" width="120" height="60" as="geometry"/>
                </mxCell>
                <mxCell id="4" value="Hệ thống băng tải, Cảm biến, Camera" style="rounded=1;whiteSpace=wrap;html=1;fillColor=#008a00;fontColor=#ffffff;strokeColor=#005700;" parent="1" vertex="1">
                    <mxGeometry x="320" y="340" width="140" height="70" as="geometry"/>
                </mxCell>
                <mxCell id="5" value="Bộ điều khiển băng tải" style="rounded=1;whiteSpace=wrap;html=1;fillColor=#6a00ff;strokeColor=#3700CC;fontColor=#ffffff;" parent="1" vertex="1">
                    <mxGeometry x="140" y="340" width="140" height="70" as="geometry"/>
                </mxCell>
                <mxCell id="10" style="edgeStyle=none;html=1;exitX=1;exitY=0.5;exitDx=0;exitDy=0;entryX=1;entryY=0.5;entryDx=0;entryDy=0;" parent="1" source="6" target="6" edge="1">
                    <mxGeometry relative="1" as="geometry">
                        <mxPoint x="490" y="135" as="targetPoint"/>
                    </mxGeometry>
                </mxCell>
                <mxCell id="6" value="Bộ điều khiển cánh tay Robot" style="rounded=1;whiteSpace=wrap;html=1;fillColor=#fa6800;fontColor=#000000;strokeColor=#C73500;" parent="1" vertex="1">
                    <mxGeometry x="340" y="80" width="100" height="110" as="geometry"/>
                </mxCell>
                <mxCell id="11" style="edgeStyle=none;html=1;exitX=0;exitY=0.5;exitDx=0;exitDy=0;entryX=1;entryY=0.5;entryDx=0;entryDy=0;" parent="1" source="7" target="6" edge="1">
                    <mxGeometry relative="1" as="geometry"/>
                </mxCell>
                <mxCell id="15" style="edgeStyle=none;html=1;exitX=0.5;exitY=0;exitDx=0;exitDy=0;entryX=0.5;entryY=0;entryDx=0;entryDy=0;" parent="1" source="7" target="8" edge="1">
                    <mxGeometry relative="1" as="geometry">
                        <mxPoint x="563" y="40" as="targetPoint"/>
                        <Array as="points">
                            <mxPoint x="563" y="40"/>
                            <mxPoint x="235" y="40"/>
                        </Array>
                    </mxGeometry>
                </mxCell>
                <mxCell id="7" value="Găng tay điều khiển robot" style="rounded=1;whiteSpace=wrap;html=1;fillColor=#e3c800;fontColor=#000000;strokeColor=#B09500;" parent="1" vertex="1">
                    <mxGeometry x="500" y="95" width="125" height="80" as="geometry"/>
                </mxCell>
                <mxCell id="8" value="Phần mềm điều khiển trên Máy tính" style="rounded=1;whiteSpace=wrap;html=1;fillColor=#60a917;fontColor=#ffffff;strokeColor=#2D7600;" parent="1" vertex="1">
                    <mxGeometry x="180" y="85" width="110" height="100" as="geometry"/>
                </mxCell>
                <mxCell id="9" value="" style="endArrow=classic;startArrow=classic;html=1;exitX=1;exitY=0.5;exitDx=0;exitDy=0;entryX=0;entryY=0.5;entryDx=0;entryDy=0;" parent="1" source="8" target="6" edge="1">
                    <mxGeometry width="50" height="50" relative="1" as="geometry">
                        <mxPoint x="360" y="300" as="sourcePoint"/>
                        <mxPoint x="410" y="250" as="targetPoint"/>
                    </mxGeometry>
                </mxCell>
                <mxCell id="12" value="" style="endArrow=classic;startArrow=classic;html=1;entryX=0.5;entryY=1;entryDx=0;entryDy=0;exitX=0.5;exitY=0;exitDx=0;exitDy=0;" parent="1" source="3" target="6" edge="1">
                    <mxGeometry width="50" height="50" relative="1" as="geometry">
                        <mxPoint x="360" y="300" as="sourcePoint"/>
                        <mxPoint x="410" y="250" as="targetPoint"/>
                    </mxGeometry>
                </mxCell>
                <mxCell id="14" value="" style="endArrow=classic;startArrow=classic;html=1;exitX=1;exitY=0.5;exitDx=0;exitDy=0;entryX=0;entryY=0.5;entryDx=0;entryDy=0;" parent="1" source="5" target="4" edge="1">
                    <mxGeometry width="50" height="50" relative="1" as="geometry">
                        <mxPoint x="360" y="270" as="sourcePoint"/>
                        <mxPoint x="410" y="220" as="targetPoint"/>
                    </mxGeometry>
                </mxCell>
            </root>
        </mxGraphModel>
    </diagram>
    <diagram id="VzacgYlSGg2D0euH935D" name="Cấu tạo găng tay điều khiển">
        <mxGraphModel dx="721" dy="571" grid="1" gridSize="10" guides="1" tooltips="1" connect="1" arrows="1" fold="1" page="1" pageScale="1" pageWidth="850" pageHeight="1100" background="none" math="0" shadow="0">
            <root>
                <mxCell id="0"/>
                <mxCell id="1" parent="0"/>
                <mxCell id="c533Cxj6PNdh2-aLfULk-16" style="edgeStyle=none;html=1;exitX=1;exitY=0.5;exitDx=0;exitDy=0;entryX=0;entryY=0.5;entryDx=0;entryDy=0;" parent="1" source="c533Cxj6PNdh2-aLfULk-1" target="c533Cxj6PNdh2-aLfULk-9" edge="1">
                    <mxGeometry relative="1" as="geometry">
                        <Array as="points">
                            <mxPoint x="490" y="300"/>
                            <mxPoint x="490" y="260"/>
                        </Array>
                    </mxGeometry>
                </mxCell>
                <mxCell id="c533Cxj6PNdh2-aLfULk-18" style="edgeStyle=none;html=1;exitX=1;exitY=0.5;exitDx=0;exitDy=0;entryX=0;entryY=0.5;entryDx=0;entryDy=0;" parent="1" source="c533Cxj6PNdh2-aLfULk-1" target="c533Cxj6PNdh2-aLfULk-17" edge="1">
                    <mxGeometry relative="1" as="geometry">
                        <Array as="points">
                            <mxPoint x="490" y="300"/>
                            <mxPoint x="490" y="380"/>
                        </Array>
                    </mxGeometry>
                </mxCell>
                <mxCell id="c533Cxj6PNdh2-aLfULk-1" value="MCU" style="rounded=1;whiteSpace=wrap;html=1;fillColor=#a20025;fontColor=#ffffff;strokeColor=#6F0000;" parent="1" vertex="1">
                    <mxGeometry x="330" y="250" width="120" height="100" as="geometry"/>
                </mxCell>
                <mxCell id="c533Cxj6PNdh2-aLfULk-14" style="edgeStyle=none;html=1;exitX=0.5;exitY=1;exitDx=0;exitDy=0;entryX=0.5;entryY=0;entryDx=0;entryDy=0;" parent="1" source="c533Cxj6PNdh2-aLfULk-2" target="c533Cxj6PNdh2-aLfULk-3" edge="1">
                    <mxGeometry relative="1" as="geometry"/>
                </mxCell>
                <mxCell id="c533Cxj6PNdh2-aLfULk-2" value="Pin Lipo" style="rounded=1;whiteSpace=wrap;html=1;fillColor=#d80073;fontColor=#ffffff;strokeColor=#A50040;" parent="1" vertex="1">
                    <mxGeometry x="330" y="40" width="120" height="50" as="geometry"/>
                </mxCell>
                <mxCell id="c533Cxj6PNdh2-aLfULk-15" style="edgeStyle=none;html=1;exitX=0.5;exitY=1;exitDx=0;exitDy=0;entryX=0.5;entryY=0;entryDx=0;entryDy=0;" parent="1" source="c533Cxj6PNdh2-aLfULk-3" target="c533Cxj6PNdh2-aLfULk-1" edge="1">
                    <mxGeometry relative="1" as="geometry"/>
                </mxCell>
                <mxCell id="c533Cxj6PNdh2-aLfULk-3" value="Mạch ổn áp" style="rounded=1;whiteSpace=wrap;html=1;fillColor=#6a00ff;fontColor=#ffffff;strokeColor=#3700CC;" parent="1" vertex="1">
                    <mxGeometry x="335" y="130" width="110" height="60" as="geometry"/>
                </mxCell>
                <mxCell id="c533Cxj6PNdh2-aLfULk-21" style="edgeStyle=none;html=1;exitX=1;exitY=0.5;exitDx=0;exitDy=0;" parent="1" source="c533Cxj6PNdh2-aLfULk-4" edge="1">
                    <mxGeometry relative="1" as="geometry">
                        <mxPoint x="330" y="300" as="targetPoint"/>
                    </mxGeometry>
                </mxCell>
                <mxCell id="c533Cxj6PNdh2-aLfULk-4" value="Cảm biến IMU 9 trục x2" style="rounded=1;whiteSpace=wrap;html=1;fillColor=#f0a30a;fontColor=#000000;strokeColor=#BD7000;" parent="1" vertex="1">
                    <mxGeometry x="110" y="180" width="120" height="60" as="geometry"/>
                </mxCell>
                <mxCell id="c533Cxj6PNdh2-aLfULk-19" style="edgeStyle=none;html=1;exitX=1;exitY=0.5;exitDx=0;exitDy=0;entryX=0;entryY=0.5;entryDx=0;entryDy=0;" parent="1" source="c533Cxj6PNdh2-aLfULk-7" target="c533Cxj6PNdh2-aLfULk-1" edge="1">
                    <mxGeometry relative="1" as="geometry"/>
                </mxCell>
                <mxCell id="c533Cxj6PNdh2-aLfULk-7" value="Biến trở" style="rounded=1;whiteSpace=wrap;html=1;fillColor=#e3c800;fontColor=#000000;strokeColor=#B09500;" parent="1" vertex="1">
                    <mxGeometry x="110" y="270" width="120" height="60" as="geometry"/>
                </mxCell>
                <mxCell id="c533Cxj6PNdh2-aLfULk-20" style="edgeStyle=none;html=1;exitX=1;exitY=0.5;exitDx=0;exitDy=0;entryX=0;entryY=0.5;entryDx=0;entryDy=0;" parent="1" source="c533Cxj6PNdh2-aLfULk-8" target="c533Cxj6PNdh2-aLfULk-1" edge="1">
                    <mxGeometry relative="1" as="geometry"/>
                </mxCell>
                <mxCell id="c533Cxj6PNdh2-aLfULk-8" value="Nút nhấn x4" style="rounded=1;whiteSpace=wrap;html=1;fillColor=#fa6800;fontColor=#000000;strokeColor=#C73500;" parent="1" vertex="1">
                    <mxGeometry x="110" y="360" width="120" height="60" as="geometry"/>
                </mxCell>
                <mxCell id="c533Cxj6PNdh2-aLfULk-9" value="LED RGB" style="rounded=1;whiteSpace=wrap;html=1;fillColor=#60a917;fontColor=#ffffff;strokeColor=#2D7600;" parent="1" vertex="1">
                    <mxGeometry x="530" y="230" width="120" height="60" as="geometry"/>
                </mxCell>
                <mxCell id="c533Cxj6PNdh2-aLfULk-13" style="edgeStyle=none;html=1;exitX=1;exitY=0.5;exitDx=0;exitDy=0;entryX=0;entryY=0.5;entryDx=0;entryDy=0;" parent="1" source="c533Cxj6PNdh2-aLfULk-11" target="c533Cxj6PNdh2-aLfULk-2" edge="1">
                    <mxGeometry relative="1" as="geometry"/>
                </mxCell>
                <mxCell id="c533Cxj6PNdh2-aLfULk-11" value="Mạch sạc" style="rounded=1;whiteSpace=wrap;html=1;fillColor=#a20025;fontColor=#ffffff;strokeColor=#6F0000;" parent="1" vertex="1">
                    <mxGeometry x="160" y="35" width="100" height="60" as="geometry"/>
                </mxCell>
                <mxCell id="c533Cxj6PNdh2-aLfULk-17" value="Module Wireless UART" style="rounded=1;whiteSpace=wrap;html=1;fillColor=#1ba1e2;fontColor=#ffffff;strokeColor=#006EAF;" parent="1" vertex="1">
                    <mxGeometry x="530" y="350" width="120" height="60" as="geometry"/>
                </mxCell>
                <mxCell id="c533Cxj6PNdh2-aLfULk-22" value="I2C" style="text;html=1;strokeColor=none;fillColor=none;align=center;verticalAlign=middle;whiteSpace=wrap;rounded=0;" parent="1" vertex="1">
                    <mxGeometry x="270" y="230" width="40" height="20" as="geometry"/>
                </mxCell>
                <mxCell id="c533Cxj6PNdh2-aLfULk-23" value="ADC" style="text;html=1;strokeColor=none;fillColor=none;align=center;verticalAlign=middle;whiteSpace=wrap;rounded=0;" parent="1" vertex="1">
                    <mxGeometry x="240" y="280" width="40" height="20" as="geometry"/>
                </mxCell>
                <mxCell id="c533Cxj6PNdh2-aLfULk-24" value="GPIO" style="text;html=1;strokeColor=none;fillColor=none;align=center;verticalAlign=middle;whiteSpace=wrap;rounded=0;" parent="1" vertex="1">
                    <mxGeometry x="270" y="350" width="40" height="20" as="geometry"/>
                </mxCell>
                <mxCell id="c533Cxj6PNdh2-aLfULk-25" value="PWM" style="text;html=1;strokeColor=none;fillColor=none;align=center;verticalAlign=middle;whiteSpace=wrap;rounded=0;" parent="1" vertex="1">
                    <mxGeometry x="490" y="270" width="40" height="20" as="geometry"/>
                </mxCell>
                <mxCell id="c533Cxj6PNdh2-aLfULk-26" value="UART" style="text;html=1;strokeColor=none;fillColor=none;align=center;verticalAlign=middle;whiteSpace=wrap;rounded=0;" parent="1" vertex="1">
                    <mxGeometry x="490" y="350" width="40" height="20" as="geometry"/>
                </mxCell>
                <mxCell id="c533Cxj6PNdh2-aLfULk-27" value="3.3V" style="text;html=1;strokeColor=none;fillColor=none;align=center;verticalAlign=middle;whiteSpace=wrap;rounded=0;" parent="1" vertex="1">
                    <mxGeometry x="390" y="210" width="40" height="20" as="geometry"/>
                </mxCell>
                <mxCell id="c533Cxj6PNdh2-aLfULk-28" value="2.5 -&amp;gt; 4.2V" style="text;html=1;strokeColor=none;fillColor=none;align=center;verticalAlign=middle;whiteSpace=wrap;rounded=0;" parent="1" vertex="1">
                    <mxGeometry x="390" y="100" width="70" height="20" as="geometry"/>
                </mxCell>
            </root>
        </mxGraphModel>
    </diagram>
</mxfile>